# xmcd CD database file
#
# Track frame offsets:
#	150
#	16652
#	30497
#	55915
#	73235
#	90907
#	114452
#	129362
#	150215
#	165897
#	179282
#	211100
#	231340
#	261865
#	285185
#	302105
#	315572
#	326977
#
# Disc length: 4496 seconds
#
# Revision: 0
# Processed by: cddbd v1.5.1PL2 Copyright (c) Steve Scherf et al.
# Submitted via: CDex 1.51
#
DISCID=de118e12
DTITLE=Various Artist - THE BEST OF SWING JAZZ
DYEAR=2005
DGENRE=Jazz
TTITLE0=イン・ザ・ムード／グレン・ミラー・オーケストラ
TTITLE1=ワン・オクロック・ジャンプ／カウント・ペイシー・オーケストラ
TTITLE2=A列車で行こう／デューク・エリントン・オーケストラ
TTITLE3=パリの四月／カウント・ペイシー・オーケストラ
TTITLE4=キャラヴァン／エラ・フィッツジェラルド＆デューク・工リントン・オーケストラ
TTITLE5=シャイニ−・ストッキングス／カウント・ペイシー・オーケストラ
TTITLE6=ムーンライト・セレナーデ／グレン・ミラー・オーケストラ
TTITLE7=虹の彼方に／ディジー・ガレスピー・オーケストラ
TTITLE8=ソフィスティケイテッド・レディ／デイヴ・グルーシン
TTITLE9=ムード・インディゴ／デューク・エリントン・オーケストラ
TTITLE10=インディアナ／レスター・ヤング・ウィズ・オスカー・ピーターソン・トリオ
TTITLE11=サテン・ドール／デューク・工リントン・オーケストラ
TTITLE12=昔は良かったね／デイヴ・グルーシン
TTITLE13=スウィート・ジョージア・ブラウン／ベニー・グットマン
TTITLE14=イン・ア・メロウ・トーン／ディジー・ガレスピー・オーケストラ
TTITLE15=ハニ−サックル・ローズ／カウント・ペイシー・・オーケストラ
TTITLE16=ラヴ／サラ・ヴォーン
TTITLE17=この素晴らしき世界／ルイ・アーム・ストロンク
EXTD=YEAR: 2005
EXTT0=
EXTT1=
EXTT2=
EXTT3=
EXTT4=
EXTT5=
EXTT6=
EXTT7=
EXTT8=
EXTT9=
EXTT10=
EXTT11=
EXTT12=
EXTT13=
EXTT14=
EXTT15=
EXTT16=
EXTT17=
PLAYORDER=
